<svg id="Шар_1" xmlns="http://www.w3.org/2000/svg" viewBox="0 0 86.1 63.8"><style>.st1{fill:#8a0518}</style><path d="M44.3 63.8c-4.9 0-14-.2-20.2-1.5-6-1.2-10.1-2.8-13.4-6.9-2.6-3.4-4.2-8-6.7-15.6-.4-1.2-.8-2.4-1.3-3.7C2 33.9 1.4 31.9 1 30c-.2-.4-.3-1-.3-1.6-.3-1.8-.4-2.9-.4-3.2 0-6.9 4.4-13.4 12.5-18.1C20.6 2.6 31.3 0 42.8 0 58.4 0 72.7 4.8 80 12.5c3.7 3.8 5.5 8.3 5.3 12.9-.2 4.5-5.1 19.4-6.6 23.9l-.1.2c-.2.4-3.9 9.8-14 12.8-5 1.4-17.8 1.5-20.3 1.5z" fill="#faf0d4"/><path class="st1" d="M80.4 12.5C73 4.8 58.7 0 42.9 0 31.3 0 20.5 2.6 12.6 7.2 4.5 11.9 0 18.3 0 25.3c0 .3 0 1.4.4 3.2 0 .6.1 1.1.3 1.6.4 1.9 1 3.9 1.7 6 .5 1.3.9 2.6 1.3 3.7 2.6 7.6 4.1 12.2 6.9 15.7 3.3 4.1 7.5 5.7 13.5 6.9 6.2 1.3 15.4 1.5 20.3 1.5 2.5 0 15.4-.1 20.5-1.6 10.2-2.9 14-12.4 14.1-12.8l.1-.2c1.5-4.5 6.4-19.4 6.6-23.9.3-4.6-1.6-9.1-5.3-12.9zm-2.5 36.4v.1c-.1.4-3.7 9.2-13.3 12-5 1.4-17.7 1.5-20.2 1.5-4.9 0-14-.2-20.1-1.4-5.8-1.2-9.7-2.6-12.7-6.4C9 51.4 7.5 46.8 5 39.4c-.4-1.2-.8-2.4-1.3-3.7-.7-2.1-1.3-4.1-1.7-6-.2-.4-.2-.8-.3-1.3-.3-1.8-.4-2.8-.4-3 0-6.4 4.2-12.5 11.9-16.9 7.8-4.5 18.3-7 29.7-7 15.4 0 29.4 4.6 36.6 12.1 3.4 3.6 5.2 7.7 5 12-.2 4.1-5.1 18.8-6.6 23.3z"/><path class="st1" d="M67.1 33.1l-1.3-5.3c.4-.1.6-.4.6-.8v-.9c0-1.9-1.5-3.4-3.4-3.4h-6v-1.8c0-.9-.7-1.7-1.7-1.7H24.6c-.9 0-1.7.7-1.7 1.7v14.5c0 .4.4.8.8.8s.8-.4.8-.8V21.1s0-.1.1-.1h30.7s.1 0 .1.1v14.5c0 .4.4.8.8.8s.8-.4.8-.8v-.9h9.4c1.2 0 2.1.8 2.5 1.8h-2.5c-.4 0-.8.4-.8.8V39c0 1.4 1.1 2.5 2.5 2.5h.9V45h-2.1c-.7-2-2.6-3.4-4.8-3.4-2.2 0-4.1 1.4-4.8 3.4H57v-6c0-.4-.4-.8-.8-.8s-.8.4-.8.8v6H38.8c-.7-2-2.6-3.4-4.8-3.4-2.2 0-4.1 1.4-4.8 3.4h-4.6s-.1 0-.1-.1v-1.8H28c.4 0 .8-.4.8-.8s-.4-.8-.8-.8h-7.7c-.4 0-.8.4-.8.8s.4.8.8.8H23v1.8c0 .9.7 1.7 1.7 1.7H29v.1c0 2.8 2.3 5.1 5.1 5.1s5.1-2.3 5.1-5.1v-.1h18v.1c0 2.8 2.3 5.1 5.1 5.1s5.1-2.3 5.1-5.1v-.1H70c.4 0 .8-.4.8-.8v-8.5c-.2-2.1-1.7-3.9-3.7-4.2zM57 24.4h6c1 0 1.8.8 1.8 1.8v.1H57v-1.9zm0 8.7v-5.2h7.1l1.3 5.2H57zm-23 17c-1.9 0-3.5-1.6-3.5-3.5s1.6-3.5 3.5-3.5 3.5 1.6 3.5 3.5c0 2-1.6 3.5-3.5 3.5zm28.2 0c-1.9 0-3.5-1.6-3.5-3.5s1.6-3.5 3.5-3.5 3.5 1.6 3.5 3.5c-.1 2-1.6 3.5-3.5 3.5zM69 39.9h-.9c-.5 0-.9-.4-.9-.9v-.9H69v1.8z"/><circle class="st1" cx="34" cy="46.6" r="1.7"/><circle class="st1" cx="62.2" cy="46.6" r="1.7"/><path class="st1" d="M40 42.4c0 .4.4.8.8.8h11.9c.4 0 .8-.4.8-.8s-.4-.8-.8-.8H40.8c-.4 0-.8.3-.8.8zM22.1 39.8h10.2c.4 0 .8-.4.8-.8s-.4-.8-.8-.8H22.1c-.4 0-.8.4-.8.8s.3.8.8.8zM46.2 27.3l-7.1 7.1-3.7-3.7c-.3-.3-.8-.3-1.1 0-.3.3-.3.8 0 1.1l4.3 4.3c.2.2.4.2.6.2.2 0 .4-.1.6-.2l7.7-7.7c.3-.3.3-.8 0-1.1-.4-.3-1-.3-1.3 0z"/></svg>