<svg id="Шар_1" xmlns="http://www.w3.org/2000/svg" viewBox="0 0 86 63.9"><style>.st1{fill:#8a0518}</style><path d="M44.6 63.9c-4.9 0-14.1-.2-20.3-1.5s-10.2-2.8-13.5-6.9c-2.7-3.4-4.3-8-6.9-15.7l-1.3-3.7c-.7-2-1.3-4-1.8-6-.2-.5-.3-1-.3-1.5-.2-1.1-.4-2.1-.4-3.2C.1 18.5 4.6 12 12.7 7.3S31.5.1 43 .1c15.8 0 30.1 4.8 37.5 12.5 3.7 3.8 5.6 8.3 5.4 12.9s-5.1 19.4-6.6 23.9l-.1.2c-.2.4-3.9 9.8-14.2 12.8-5 1.4-17.9 1.5-20.4 1.5z" fill="#faf0d4"/><path class="st1" d="M63.6 44.9h-2.4v-8.2c0-1.8-1.5-3.3-3.3-3.3h-1v-8.5c0-1.7-1.3-3-3-3h-8.3v-6.8c0-.4-.3-.7-.7-.7h-1.2v-1c1-.3 1.6-1.2 1.6-2.2 0-1.1-1.4-2.6-1.8-3.1-.3-.3-.7-.3-1 0-.4.5-1.8 2-1.8 3.1 0 1 .6 1.9 1.6 2.2v1h-1.2c-.4 0-.7.3-.7.7v6.8h-8.3c-1.7 0-3 1.3-3 3v6.2c0 .4.3.7.7.7.4 0 .7-.3.7-.7v-6.2c0-.9.7-1.6 1.6-1.6h21.8c.9 0 1.6.7 1.6 1.6v8.5H28.2c-1.8 0-3.3 1.5-3.3 3.3v5.7c0 .4.3.7.7.7.4 0 .7-.3.7-.7v-5.7c0-1.1.9-1.9 1.9-1.9h29.7c1.1 0 1.9.9 1.9 1.9v8.2H22.5c-.4 0-.7.3-.7.7 0 2.5 2 4.6 4.6 4.6h33.4c2.5 0 4.6-2 4.6-4.6-.1-.4-.4-.7-.8-.7zM42.2 11.2c.2-.6.5-1.1.9-1.5.4.4.7 1 .9 1.5-.1.5-.5.9-1 .8-.5-.1-.8-.4-.8-.8zm2.1 10.7h-2.4v-6.2h2.4v6.2zm15.4 26.9H26.4c-1.5 0-2.8-1-3.1-2.5h39.5c-.3 1.4-1.6 2.5-3.1 2.5z"/><path class="st1" d="M32.8 26.7c.3 0 .7.3 1.1.8.5.8 1.3 1.2 2.2 1.3.9-.1 1.7-.6 2.2-1.3.5-.6.8-.9 1.3-.9s.7.3 1.2.8c.5.7 1.4 1.2 2.3 1.3.9-.1 1.7-.5 2.3-1.2.5-.5.8-.8 1.2-.8.3 0 .6.3 1 .8.4.7 1.2 1.2 2 1.3.9-.1 1.7-.5 2.2-1.2.5-.5.9-.8 1.3-.8s.7-.2.8-.6-.2-.7-.6-.8h-.2c-.9.1-1.7.5-2.3 1.2-.5.5-.8.8-1.2.8-.4 0-.6-.3-1-.8-.4-.7-1.2-1.2-2-1.3-.9.1-1.7.5-2.2 1.2-.5.5-.9.8-1.3.8s-.8-.3-1.3-.8c-.5-.7-1.3-1.2-2.2-1.2-.9.1-1.8.6-2.3 1.3-.5.5-.8.9-1.2.9-.4 0-.7-.3-1.2-.9-.5-.7-1.3-1.2-2.2-1.3-.4 0-.7.3-.7.7.1.4.4.7.8.7zM29.7 39.3c.5.8 1.4 1.3 2.4 1.4 1-.1 1.8-.6 2.4-1.4.6-.6.9-1 1.4-1 .5 0 .8.3 1.4.9.6.8 1.5 1.3 2.4 1.4 1-.1 1.9-.6 2.5-1.3.6-.5.9-.9 1.3-.9s.7.3 1.1.9c.5.7 1.3 1.2 2.2 1.3.9-.1 1.8-.5 2.4-1.3.5-.5.9-.9 1.4-.9.5 0 .8.3 1.2.8.5.7 1.3 1.2 2.2 1.3 1-.1 1.9-.6 2.5-1.3.5-.5.9-.9 1.3-.9s.7-.3.7-.7-.3-.7-.7-.7c-.9.1-1.8.5-2.3 1.3-.5.5-.9.9-1.5.9-.5 0-.7-.3-1.2-.8-.5-.7-1.3-1.2-2.2-1.3-.9.1-1.8.6-2.4 1.3-.5.5-.9.9-1.4.9-.5 0-.7-.3-1.1-.9-.5-.8-1.3-1.3-2.2-1.4-.9.1-1.8.5-2.3 1.3-.5.5-1 .9-1.5.9s-.9-.4-1.4-.9c-.6-.8-1.4-1.2-2.4-1.3-1 .1-1.9.6-2.4 1.5-.5.6-.9 1-1.4 1s-.8-.4-1.3-1c-.5-.8-1.4-1.3-2.3-1.4-.4 0-.7.3-.7.7 0 .4.3.7.7.7.3-.1.7.3 1.2.9z"/><path class="st1" d="M80.4 12.5C73 4.8 58.7 0 42.9 0 31.3 0 20.7 2.5 12.6 7.2 4.5 11.9 0 18.3 0 25.3c0 1.1.2 2.1.4 3.2 0 .5.1 1 .3 1.5.5 2 1.1 4 1.8 6l1.3 3.8c2.6 7.6 4.1 12.2 6.9 15.7 3.3 4.1 7.5 5.7 13.5 6.9 6.2 1.3 15.4 1.5 20.3 1.5 2.6 0 15.4-.1 20.6-1.6 10.2-3 14-12.4 14.1-12.8l.1-.2c1.5-4.5 6.5-19.3 6.6-23.9.1-4.6-1.8-9.1-5.5-12.9zm-2.5 36.3v.2c-.1.4-3.7 9.2-13.3 12-5 1.4-17.7 1.5-20.2 1.5-4.9 0-14-.2-20.1-1.4-5.7-1.2-9.7-2.6-12.7-6.4-2.5-3.3-4.1-7.9-6.6-15.3l-1.3-3.7c-.7-2-1.3-4-1.7-6-.2-.4-.3-.9-.3-1.4-.2-1-.3-2-.4-3 0-6.5 4.1-12.5 11.9-17 7.8-4.5 18.3-7 29.7-7 15.4 0 29.4 4.6 36.6 12 3.4 3.6 5.2 7.7 5 12s-5.1 19.1-6.6 23.5z"/></svg>