<svg id="Шар_1" xmlns="http://www.w3.org/2000/svg" viewBox="0 0 85.9 63.9"><style>.st1{fill:#8a0518}</style><path d="M44.4 63.9c-4.9 0-14.1-.2-20.3-1.5-6.1-1.2-10.2-2.8-13.5-6.9-2.7-3.4-4.3-8-6.9-15.7l-1.3-3.7c-.7-2-1.3-4-1.8-6-.2-.5-.3-1-.3-1.6-.1-1-.3-2-.3-3.1 0-6.9 4.5-13.3 12.6-18.1S31.4.1 42.9.1C58.7.1 73 4.9 80.4 12.6c3.7 3.8 5.6 8.3 5.4 12.9s-5.1 19.4-6.6 23.9l-.1.2c-.1.4-3.9 9.8-14.1 12.8-5.2 1.4-18 1.5-20.6 1.5z" fill="#faf0d4"/><path class="st1" d="M59.2 12.9c-3.9-.1-7.6 1.2-10.7 3.4-2.6 1.9-4.5 4.5-5.5 7.5-.9 3.2-.2 6.1 2 8-.7 1.3-1.4 2.5-1.9 3.9-.5-1.2-1.1-2.3-1.9-3.3 1.1-1.8 1.2-3.9.4-5.8-.9-2.1-2.5-3.9-4.4-5.1-2.3-1.4-4.9-2.2-7.7-2.2-3.8.1-7.5 1.4-10.5 3.7l-1.8 1.3 2.1.6c3.5 1 6.3 3.7 8.8 6 2.5 2.4 4.9 4.8 7.7 4.8 1.5 0 2.9-.6 4-1.6 1.4 1.9 2.1 4.2 2.1 6.5V54h2V40.4c0-1.7 1-4.2 2.8-7.3 1.1.6 2.4 1 3.7 1 3.9 0 6.4-3.7 9.1-7.6 2.4-3.4 5.1-7.4 9.1-9.5l2-1-2-.9c-2.9-1.4-6.1-2.2-9.4-2.2zM39.7 30.8c-1.6-1.6-3.4-2.9-5.3-4.1-.4-.2-.7-.4-.9-.6l-1.2 1.7c.3.2.6.4 1 .7 1.9 1.1 3.6 2.5 5.1 4-.7.7-1.6 1.1-2.6 1.2v-.1c-1.9 0-3.9-1.9-6.2-4.2-2.3-2.2-4.6-4.5-7.6-5.8 2.3-1.4 4.9-2.1 7.5-2.2 5.1 0 9 3 10.1 6 .4 1.1.5 2.3.1 3.4zm18.1-5.5c-2.5 3.6-4.6 6.7-7.4 6.7-.9 0-1.8-.3-2.6-.8l.3-.5c2.1-3.3 4.2-6 4.2-6l-1.6-1.3c-1.6 2.1-3.2 4.3-4.6 6.5-1.3-1.5-1.7-3.7-1-5.6.8-2.6 2.4-4.8 4.7-6.4 2.7-2 6-3 9.4-3 2.3 0 4.5.4 6.6 1.2-3.4 2.5-5.8 6-8 9.2z"/><path class="st1" d="M80.5 12.5C73.1 4.8 58.7 0 43 0 31.4 0 20.7 2.5 12.6 7.2 4.5 11.9.1 18.3.1 25.3c0 1.1.2 2.1.4 3.2 0 .5.1 1.1.3 1.5.5 2 1.1 4 1.7 6 .5 1.4.9 2.6 1.3 3.8 2.6 7.6 4.1 12.2 6.9 15.7 3.3 4.1 7.5 5.7 13.5 6.9 6.2 1.3 15.4 1.5 20.3 1.5 2.5 0 15.4-.1 20.5-1.6 10.2-3 14-12.4 14.1-12.8l.1-.2c1.5-4.5 6.4-19.3 6.6-23.9.3-4.6-1.6-9.1-5.3-12.9zM78 48.8v.2c-.2.4-3.7 9.2-13.3 12-5 1.4-17.7 1.5-20.2 1.5-4.9 0-14-.2-20.1-1.4-5.8-1.2-9.7-2.6-12.8-6.4-2.5-3.3-4.1-7.9-6.6-15.3-.4-1.2-.8-2.4-1.3-3.7-.7-2-1.3-4-1.7-6-.2-.4-.2-.9-.2-1.4-.2-1-.3-2-.4-3 0-6.5 4.1-12.5 11.9-17s18.3-7 29.7-7c15.4 0 29.4 4.6 36.5 12 3.5 3.6 5.2 7.7 5 12-.1 4.3-5 19.1-6.5 23.5z"/></svg>