<svg id="Шар_1" xmlns="http://www.w3.org/2000/svg" viewBox="0 0 86.1 64.2"><style>.st1{fill:#8a0518}</style><path d="M43.9 63.8c-4.8 0-13.9-.2-20-1.4-5.9-1.2-10-2.8-13.2-6.9-2.7-3.4-4.2-8-6.7-15.6-.4-1.2-.8-2.4-1.2-3.7-.7-2-1.2-3.9-1.7-6-.2-.5-.3-1-.3-1.6-.2-1-.3-2.1-.4-3.2 0-6.9 4.4-13.3 12.3-18S31 .3 42.4.3C57.9.3 72 5.1 79.2 12.7c3.6 3.8 5.4 8.3 5.3 12.8-.2 4.6-5 19.3-6.5 23.7l-.1.2c-.1.6-3.8 9.9-13.9 12.8-5 1.5-17.6 1.6-20.1 1.6z" fill="#faf0d4"/><path class="st1" d="M80.4 12.5C73 4.8 58.7 0 42.9 0 31.3 0 20.7 2.5 12.6 7.2 4.5 11.9 0 18.3 0 25.3c0 1.1.2 2.1.4 3.2 0 .5.1 1 .3 1.5.5 2 1.1 4 1.8 6l1.3 3.8c2.6 7.6 4.1 12.2 6.9 15.7 3.3 4.1 7.5 5.7 13.5 6.9 6.2 1.3 15.4 1.5 20.3 1.5 2.6 0 15.4-.1 20.6-1.6 10.2-3 14-12.4 14.1-12.8l.1-.2c1.5-4.5 6.5-19.3 6.6-23.9s-1.8-9.1-5.5-12.9zm-2.5 36.3v.2c-.1.4-3.7 9.2-13.3 12-5 1.4-17.7 1.5-20.2 1.5-4.9 0-14-.2-20.1-1.4-5.7-1.2-9.7-2.6-12.7-6.4-2.5-3.3-4.1-7.8-6.6-15.3l-1.3-3.7c-.7-2-1.3-4-1.7-6-.2-.4-.3-.9-.3-1.4-.2-1-.3-2-.4-3 0-6.5 4.1-12.5 11.9-17 7.8-4.5 18.3-7 29.7-7 15.4 0 29.4 4.6 36.6 12 3.4 3.6 5.2 7.7 5 12s-5.1 19.1-6.6 23.5z"/><path class="st1" d="M63 32c.8-1.8.3-3.8-1.1-5.1-1.3-1.2-3.5-1.7-6.6-1.6-1.4.1-2.7.2-4.1.5-.4.1-.8.2-1.3.3 0-1.6.4-3.3 1-4.8 1.2-3.5 1.1-6.2-.2-8-1-1.3-2.6-2-4.2-2-.6 0-1.1.3-1.5.7-.9 1.1-.8 3-.7 3.9-1.1 3-4.2 10.1-6.8 12.1l-.1.1c-.7.7-1.2 1.5-1.6 2.4-.5-.3-1.1-.4-1.6-.4h-5c-1.9 0-3.4 1.5-3.4 3.4V47c0 1.9 1.5 3.4 3.4 3.4h5c.7 0 1.4-.2 2-.6l1.9.2c3.6.4 7.3.6 11 .6 1 .1 1.9.1 2.8.1 1.3 0 2.6-.1 3.8-.3 2.5-.5 4.3-1.6 5.1-3.2.5-1 .7-2.1.5-3.2 1.3-1.1 2-2.6 1.9-4.3 0-.6-.1-1.1-.3-1.6.8-.9 1.2-2.1 1.1-3.3 0-1-.4-2-1-2.8zM35.3 46.9c0 .7-.5 1.2-1.2 1.2h-5c-.7 0-1.2-.5-1.2-1.2V33.5c0-.7.5-1.2 1.2-1.2h5c.7 0 1.2.5 1.2 1.2v13.4zm25.5-9.8c-.4.4-.4.9-.2 1.4.2.4.3.9.4 1.3 0 1.2-.6 2.2-1.5 2.8-.5.4-.6.9-.4 1.4.2.7.1 1.5-.2 2.1-.6 1-1.8 1.7-3.6 2.1-2 .3-4 .4-6 .2h-.1c-3.6 0-7.2-.2-10.7-.6l-.8-.1c0-.2.1-.5.1-.7V33.5c0-.3-.1-.7-.2-1 .3-1.1.8-2 1.6-2.8 3.7-2.9 7.3-12.8 7.5-13.3v-.5c-.1-.8-.1-1.6.1-2.4.9 0 1.8.4 2.3 1.1.8 1.2.8 3.2-.1 6-1.4 4.2-1.5 6.4-.4 7.4.5.4 1.2.6 1.8.3.5-.1 1-.2 1.4-.3h.1c2.5-.5 7.1-.9 8.6.5.8.8.9 2.1.3 3-.3.5-.2 1.1.2 1.4.5.5.8 1.2.9 1.9-.1 1-.5 1.8-1.1 2.3z"/></svg>