<svg id="Шар_1" xmlns="http://www.w3.org/2000/svg" viewBox="0 0 85.8 64.2"><style>.st1{fill:#8a0518}</style><path d="M44.5 63.3c-4.9 0-14.1-.2-20.3-1.4-6.1-1.2-10.2-2.7-13.5-6.8-2.7-3.4-4.3-7.9-6.9-15.4L2.5 36c-.7-2.1-1.3-4-1.8-6-.2-.5-.3-1-.3-1.5-.2-1-.4-2.1-.4-3.2 0-6.8 4.5-13.2 12.6-17.8S31.4.4 42.9.4C58.7.4 73 5.1 80.4 12.7c3.7 3.8 5.6 8.2 5.4 12.7s-5.1 19.1-6.6 23.5l-.1.2c-.1.4-3.9 9.7-14.1 12.6-5.2 1.5-18 1.6-20.5 1.6z" fill="#faf0d4"/><path class="st1" d="M56.8 37.9c6.2-6.8 5.7-17.3-1.1-23.5-3-2.8-7-4.3-11.1-4.3-9.2 0-16.6 7.4-16.6 16.6 0 4.2 1.6 8.2 4.4 11.2l-7 12.1c-.1.2-.2.5-.1.7.2.4.6.6 1 .5l5.6-2.2.8 6c0 .2.2.5.4.6.4.2.9.1 1.1-.3l7-12.2c1 .2 2.1.3 3.1.3 1.1 0 2.1-.1 3.2-.3l7 12.2c.2.4.7.5 1.1.3.2-.1.4-.3.4-.6l.9-6 5.6 2.2c.4.2.9 0 1-.5.2-.2.3-.5.1-.7l-6.8-12.1zM34.2 52.3l-.7-4.6c-.1-.4-.5-.7-.9-.7-.1 0-.2 0-.2.1L28 48.7l5.6-9.7c1.8 1.6 3.9 2.8 6.2 3.5l-5.6 9.8zm10.4-10.7c-8.2 0-14.9-6.7-14.9-14.9 0-3.9 1.6-7.7 4.4-10.5 2.8-2.8 6.6-4.4 10.5-4.4 8.2 0 14.9 6.7 14.9 14.9 0 4-1.6 7.7-4.4 10.5-2.7 2.8-6.5 4.4-10.5 4.4zM56.9 47c-.1 0-.2-.1-.2-.1-.4-.1-.9.2-.9.7l-.7 4.6-5.6-9.8c2.3-.7 4.4-1.9 6.2-3.5l5.6 9.7-4.4-1.6z"/><path class="st1" d="M52.3 23.8c-.2-.3-.4-.5-.7-.6-.3-.1-.6-.2-.9-.2h-3.2l-1-3.2c-.2-.5-.5-.8-.9-1.1-.3-.1-.6-.2-.9-.2-.3 0-.6.1-.9.2-.4.2-.8.6-.9 1.1l-1 3.2h-3.2c-.3 0-.6 0-.9.2-.3.1-.5.3-.7.6-.3.4-.4.9-.3 1.4.1.5.3.9.7 1.2l2.7 2-1 3.2v.1c-.1.3-.1.5 0 .8 0 .3.2.6.4.8.3.4.7.7 1.2.7.4 0 .9-.1 1.2-.3l2.7-2 2.7 2c.4.3.9.4 1.4.4.5-.1.9-.3 1.2-.7.2-.2.3-.5.3-.8.1-.3.1-.5 0-.8v-.1l-1-3.2 2.7-2c.4-.3.7-.7.7-1.2 0-.7-.1-1.1-.4-1.5zm-1.3.9c0 .1-.1.2-.1.3l-3.2 2.3c-.3.2-.4.6-.3.9l1.2 3.7V32.2s-.1.1-.2.1h-.1L45.1 30c-.1-.1-.3-.2-.5-.1-.2 0-.4 0-.5.1l-3.2 2.3h-.1c-.1 0-.1 0-.2-.1V31.9l1.2-3.7c.1-.3 0-.7-.3-.9l-3-2.3-.1-.1v-.2h4.1c.4 0 .7-.2.8-.6l1.2-3.7c0-.1.1-.1.1-.1h.2l.1.1L46 24c.1.3.4.6.8.6h4.1c.1 0 .1.1.1.1z"/><path class="st1" d="M53.8 17.5c-2.4-2.4-5.7-3.8-9.1-3.8-7.1 0-12.9 5.8-12.9 12.9 0 7.1 5.8 12.9 12.9 12.9 7.1 0 12.9-5.8 12.9-12.9 0-3.4-1.4-6.7-3.8-9.1zm-1.2 17.1c-2.1 2.1-5 3.3-8 3.3-6.2 0-11.3-5-11.3-11.3 0-3 1.2-5.9 3.3-8 2.1-2.1 5-3.4 8-3.4 6.3 0 11.3 5.1 11.3 11.4 0 3.1-1.2 5.9-3.3 8z"/><path class="st1" d="M80.4 12.5C73 4.8 58.7 0 42.9 0 31.3 0 20.7 2.5 12.6 7.2 4.5 11.9 0 18.3 0 25.3c0 1.1.2 2.1.4 3.2 0 .5.1 1 .3 1.5.5 2 1.1 4 1.8 6l1.3 3.8c2.6 7.6 4.1 12.2 6.9 15.7 3.3 4.1 7.5 5.7 13.5 6.9 6.2 1.3 15.4 1.5 20.3 1.5 2.6 0 15.4-.1 20.6-1.6 10.2-3 14-12.4 14.1-12.8l.1-.2c1.5-4.5 6.5-19.3 6.6-23.9s-1.8-9.1-5.5-12.9zm-2.5 36.3v.2c-.1.4-3.7 9.2-13.3 12-5 1.4-17.7 1.5-20.2 1.5-4.9 0-14-.2-20.1-1.4-5.7-1.2-9.7-2.6-12.7-6.4-2.5-3.3-4.1-7.8-6.6-15.3l-1.3-3.7c-.7-2-1.3-4-1.7-6-.2-.4-.3-.9-.3-1.4-.2-1-.3-2-.4-3 0-6.5 4.1-12.5 11.9-17 7.8-4.5 18.3-7 29.7-7 15.4 0 29.4 4.6 36.6 12 3.4 3.6 5.2 7.7 5 12s-5.1 19.1-6.6 23.5z"/></svg>