<svg id="Шар_1" xmlns="http://www.w3.org/2000/svg" viewBox="0 0 85.8 63.8"><style>.st1{fill:#8a0518}</style><path d="M44.4 63.8c-4.9 0-14.1-.2-20.3-1.5-6.1-1.2-10.2-2.8-13.5-6.9-2.7-3.4-4.3-8-6.9-15.7L2.5 36c-.7-2-1.3-4-1.8-6-.2-.5-.3-1-.3-1.5-.2-1.1-.4-2.2-.4-3.2 0-6.9 4.5-13.4 12.6-18.1S31.3 0 42.9 0C58.7 0 73 4.8 80.4 12.5c3.7 3.9 5.6 8.3 5.4 12.9s-5.1 19.4-6.6 23.9l-.1.2c-.1.4-3.9 9.8-14.1 12.7-5.2 1.5-18 1.6-20.6 1.6z" fill="#faf0d4"/><path class="st1" d="M80.4 12.5C73 4.8 58.7 0 42.9 0 31.3 0 20.7 2.5 12.6 7.2 4.5 11.9 0 18.3 0 25.3c0 1.1.2 2.1.4 3.2 0 .5.1 1 .3 1.5.5 2 1.1 4 1.8 6l1.3 3.8c2.6 7.6 4.1 12.2 6.9 15.7 3.3 4.1 7.5 5.7 13.5 6.9 6.2 1.3 15.4 1.5 20.3 1.5 2.6 0 15.4-.1 20.6-1.6 10.2-3 14-12.4 14.1-12.8l.1-.2c1.5-4.5 6.5-19.3 6.6-23.9.1-4.6-1.8-9.1-5.5-12.9zm-2.5 36.3v.2c-.1.4-3.7 9.2-13.3 12-5 1.4-17.7 1.5-20.2 1.5-4.9 0-14-.2-20.1-1.4-5.7-1.2-9.7-2.6-12.7-6.4-2.5-3.3-4.1-7.9-6.6-15.3l-1.3-3.7c-.7-2-1.3-4-1.7-6-.2-.4-.3-.9-.3-1.4-.2-1-.3-2-.4-3 0-6.5 4.1-12.5 11.9-17 7.8-4.5 18.3-7 29.7-7 15.4 0 29.4 4.6 36.6 12 3.4 3.6 5.2 7.8 5 12-1.4 8.1-3.6 16-6.6 23.5z"/><path class="st1" d="M52.7 34.6h-5.6c-1.5 0-2.8 1.2-2.8 2.8v4.3c0 1.5 1.2 2.8 2.8 2.8h5.6c1.5 0 2.8-1.2 2.8-2.8v-4.3c0-1.5-1.3-2.8-2.8-2.8zm.7 7.1c0 .4-.3.8-.8.8H47c-.4 0-.8-.3-.8-.8v-4.3c0-.4.3-.8.8-.8h5.6c.4 0 .8.3.8.8v4.3z"/><path class="st1" d="M58.3 15.5c-.2-.3-.5-.5-.9-.5H30.5c-.4 0-.7.2-.9.5l-6.1 10.8c-.1.2-.1.3-.1.5 0 2.3 1.4 4.5 3.5 5.4V50c0 .6.4 1 1 1H60c.6 0 1-.4 1-1V32.3v-.1c2.2-.9 3.6-3.1 3.6-5.4 0-.2 0-.4-.1-.5l-6.2-10.8zM31.1 17h25.8l4.8 8.4H26.3l4.8-8.4zm21.6 10.5c-.4 2.1-2.4 3.5-4.5 3.1-1.6-.3-2.8-1.5-3.1-3.1h7.6zm-9.8 0c-.4 2.1-2.4 3.5-4.5 3.1-1.6-.3-2.8-1.5-3.1-3.1h7.6zm-17.4 0h7.7c-.4 2.1-2.4 3.5-4.5 3.1-1.7-.2-2.9-1.5-3.2-3.1zM40.4 49h-5.8V38.1c0-.8.6-1.4 1.4-1.4h2.9c.8 0 1.4.6 1.4 1.4V49zM59 49H42.4V38.1c0-1.9-1.6-3.5-3.5-3.5H36c-1.9 0-3.5 1.6-3.5 3.5V49H29V32.7h.3c2 0 3.8-1 4.9-2.6 1.8 2.7 5.5 3.4 8.2 1.6.6-.4 1.2-1 1.6-1.6 1.8 2.7 5.5 3.4 8.2 1.6.6-.4 1.2-1 1.6-1.6 1.1 1.6 2.9 2.6 4.9 2.6h.3V49zm-.3-18.3c-1.9 0-3.5-1.3-3.8-3.2h7.7c-.4 1.9-2 3.2-3.9 3.2z"/></svg>